<svg width="426" height="345" viewBox="0 0 426 345" fill="none" xmlns="http://www.w3.org/2000/svg">
<path d="M362.696 311.722C362.696 291.538 375.235 278.443 394.408 278.443C413.58 278.443 426 291.538 426 311.722C426 331.905 413.46 345 394.408 345C375.355 345 362.696 331.905 362.696 311.722ZM394.408 332.504C404.296 332.504 410.083 324.817 410.083 311.722C410.083 298.627 404.294 290.939 394.408 290.939C384.522 290.939 378.733 298.627 378.733 311.722C378.733 324.817 384.4 332.504 394.408 332.504Z" fill="#EE2737"/>
<path d="M344.838 265.502V279.922H361.715V291.819H344.838V324.026C344.838 328.952 347.369 331.716 352.071 331.716H361.715V343.613H349.541C336.4 343.613 329.406 337.003 329.406 324.026V291.819H319.281V279.922H329.406V265.502H344.838Z" fill="#EE2737"/>
<path d="M254.983 311.722C254.983 291.538 267.568 278.443 286.811 278.443C306.054 278.443 318.519 291.538 318.519 311.722C318.519 331.905 305.933 345 286.811 345C267.688 345 254.983 331.905 254.983 311.722ZM286.813 332.504C296.738 332.504 302.546 324.817 302.546 311.722C302.546 298.627 296.735 290.939 286.813 290.939C276.891 290.939 271.081 298.627 271.081 311.722C271.081 324.817 276.768 332.504 286.813 332.504Z" fill="#EE2737"/>
<path d="M170.688 279.885L171.05 290.106C174.185 282.772 180.694 278.443 189.133 278.443C198.177 278.443 204.686 283.253 207.46 291.669C210.475 283.011 217.104 278.443 226.387 278.443C239.287 278.443 247.366 286.979 247.366 302.612V343.613H231.933V307.541C231.933 296.72 228.436 290.947 221.685 290.947C213.485 290.947 209.025 296.839 209.025 307.541V343.613H194.919V307.541C194.919 296.72 191.422 290.947 184.913 290.947C176.713 290.947 172.133 296.959 172.133 307.541V343.613H156.7V279.885H170.688Z" fill="#EE2737"/>
<path d="M138.253 256C142.841 256 146.343 259.249 146.343 263.702C146.343 268.155 142.841 271.525 138.253 271.525C133.664 271.525 130.283 268.276 130.283 263.702C130.283 259.129 133.785 256 138.253 256ZM145.981 279.829V343.613H130.524V279.829H145.981Z" fill="#EE2737"/>
<path d="M91.4734 278.446C107.977 278.446 121.229 289.738 121.471 312.204V315.927H76.0518C76.7752 326.498 82.3172 332.865 91.4734 332.865C97.2574 332.865 102.558 329.502 104.845 323.976L120.628 325.177C116.772 337.312 105.206 345 91.4734 345C72.318 345 59.7897 331.905 59.7897 311.722C59.7897 291.538 72.318 278.443 91.4734 278.443V278.446ZM105.568 305.715C104.363 294.782 98.3399 290.578 91.4734 290.578C82.9208 290.578 77.3787 296.224 76.1741 305.715H105.571H105.568Z" fill="#EE2737"/>
<path d="M17.736 331.699H56.3479V343.613H0V330.495L37.283 291.745H1.56875V279.83H55.3836V292.948L17.7385 331.699H17.736Z" fill="#EE2737"/>
<path d="M309 192H117L206.52 96H309V192Z" fill="#EE2737"/>
<path d="M117 0H309L219.48 96H117V0Z" fill="#EE2737"/>
</svg>
